<svg id="Layer_1" data-name="Layer 1" xmlns="http://www.w3.org/2000/svg" viewBox="0 0 435.43 125.7"><defs><style>.cls-1{fill:#9d2124;}</style></defs><path class="cls-1" d="M443.56,366.56c-4-8.25-8-16.35-12-24.46s-7.9-16.16-11.86-24.24-7.93-16.22-11.93-24.35c-.44,0-.83,0-1.21,0h-11c-.17,0-.36,0-.45.17s0,.17,0,.22l48.24,96.35a1.1,1.1,0,0,0,.2.25c.09-.08.19-.14.23-.22l48.29-96.46c0-.06,0-.14,0-.22a1,1,0,0,0-.29-.08H480.3a3.18,3.18,0,0,0-.48.09c-1.32,2.67-2.66,5.37-4,8.06s-2.68,5.39-4,8.09-2.69,5.39-4,8.09l-4,8.09-4.06,8.19-4,8.09q-2,4.05-4,8.09t-4,8.09C446.32,361.05,445,363.76,443.56,366.56Zm73.93,24a6.15,6.15,0,0,0,.07-1.41V295.29c0-.28,0-.57,0-.85s0-.41-.07-.58a1,1,0,0,0-.25-.1l-.85,0-9.58,0a.15.15,0,0,0-.1,0,1.3,1.3,0,0,0-.15.16c0,.37,0,.82,0,1.28v94c0,.25,0,.5,0,.74s0,.4.06.59c.89.17,7.34.25,10.27.12A5.12,5.12,0,0,0,517.49,390.57Zm-5.63-111a6.9,6.9,0,1,0-.05-13.8,6.9,6.9,0,1,0,.05,13.8Z" transform="translate(-165.67 -265.28)"/><path class="cls-1" d="M304.78,391a9.29,9.29,0,0,0-1-.22c-1.24-.15-2.47-.26-3.71-.4a46.43,46.43,0,0,1-14.78-4.1,40.58,40.58,0,0,1-22.22-25.52,57.21,57.21,0,0,1-2.19-10.38,61.72,61.72,0,0,1-.36-10.08,53.49,53.49,0,0,1,5.62-22.18,43.17,43.17,0,0,1,20.6-19.84,45.28,45.28,0,0,1,11.41-3.62,63.32,63.32,0,0,1,14.42-.87,50.6,50.6,0,0,1,12.86,2.15,42.18,42.18,0,0,1,19,11.82,42.72,42.72,0,0,1,9.35,16.64,50.46,50.46,0,0,1,2,10.63,52.91,52.91,0,0,1,.14,5.63c0,1.13-.16,2.26-.25,3.39,0,.25-.11.48-.18.79-1.31,0-2.62,0-3.93,0s-2.7,0-4,0H275.68c-1.3,0-2.61,0-4,0a3.28,3.28,0,0,0-.09.55,42.28,42.28,0,0,0,4.23,17.74,31.94,31.94,0,0,0,21.54,17.22,40.37,40.37,0,0,0,6.82,1.09,49.67,49.67,0,0,0,5.32.15,46.94,46.94,0,0,0,13.71-2.18,29.59,29.59,0,0,0,16.26-13.15l.81-1.33c.88-.13,11-.16,12.07,0a1,1,0,0,1,0,.3,45.2,45.2,0,0,1-5.5,9.56,38.12,38.12,0,0,1-15.65,11.91,51,51,0,0,1-10.28,3c-2.72.52-5.47.77-8.23,1a2,2,0,0,0-1.12.23ZM272,335.6a7.17,7.17,0,0,0,1.44.06h69.45c.28,0,.57,0,.85,0a5.41,5.41,0,0,0,.58-.12,2.83,2.83,0,0,0,0-.38,46.7,46.7,0,0,0-2.13-9.84,31.57,31.57,0,0,0-11.54-15.8,34.53,34.53,0,0,0-19.12-6.58,48.33,48.33,0,0,0-10.19.58,36.14,36.14,0,0,0-10,3.23,32.77,32.77,0,0,0-15.68,15.87,44.17,44.17,0,0,0-3.32,10.51C272.26,333.92,272.16,334.73,272,335.6Z" transform="translate(-165.67 -265.28)"/><path class="cls-1" d="M601.1,305.05c-.39,0-.78,0-1.17,0H570.6a1.16,1.16,0,0,0-.22,1c0,3.43,0,6.87,0,10.31.06,6.06.12,12.12.25,18.18.06,3,.16,6,.4,9a41.6,41.6,0,0,0,4.63,16.45,39.39,39.39,0,0,0,23.6,18.74c.27.08.54.18.79.27.14.8.17,10,0,11.3a1.14,1.14,0,0,1-.89,0,47.78,47.78,0,0,1-12-4.19,50.84,50.84,0,0,1-13.87-10.45,40.6,40.6,0,0,1-7.2-11,70.38,70.38,0,0,1-4.68-14,76.89,76.89,0,0,1-1.65-9.63c-.25-2.43-.39-4.88-.45-7.32-.27-9.28-.28-18.57-.19-27.85,0-.31,0-.62-.05-1-1.25-.12-2.46,0-3.65,0s-2.42,0-3.62,0H537.43c-.54-.86-.93-1.81-1.4-2.71s-.93-1.84-1.39-2.76l-1.32-2.66c-.45-.91-1-1.8-1.36-2.83a12.43,12.43,0,0,1,1.89-.07h23.42a12.94,12.94,0,0,0,1.85-.06c0-.42,0-.8,0-1.18V266.41a1.65,1.65,0,0,1,.18-1.13h11.07a1.52,1.52,0,0,0,0,.21q0,13.18,0,26.37c0,.42,0,.85,0,1.27,0,.2.05.4.09.67h29.64l1,0Z" transform="translate(-165.67 -265.28)"/><path class="cls-1" d="M165.67,293.78h12.94c.18.35.36.69.53,1l19.77,40.37q7.43,15.17,14.86,30.35a3.61,3.61,0,0,0,.63,1.06c2.47-4.9,4.85-9.76,7.27-14.61l7.23-14.56q3.58-7.24,7.18-14.47l7.22-14.57,7.24-14.58H262.7c.19.33-.07.55-.18.78-1.45,2.92-2.92,5.83-4.38,8.74q-21.52,43-43.06,86a2.64,2.64,0,0,1-.75,1.18c-.19-.37-.38-.72-.55-1.06l-47.25-94.35a10.54,10.54,0,0,0-.5-.94c-.06-.09-.24-.11-.36-.16Z" transform="translate(-165.67 -265.28)"/><path class="cls-1" d="M379.76,265.28c0,2.37,0,4.75-.05,7.12-.06,5.78-.16,11.55-.21,17.33-.06,6.3-.11,12.61-.1,18.92,0,5.6.09,11.2.2,16.79q.11,5.1.4,10.2a77.28,77.28,0,0,0,3.18,18.48,40,40,0,0,0,2.72,6.68,28.8,28.8,0,0,0,6.81,8.63,46.83,46.83,0,0,0,12.55,7.88c.85.35,1.71.65,2.55,1,.13,1.12.11,10.82,0,11.62a2.18,2.18,0,0,1-1-.12,47.44,47.44,0,0,1-19.05-9.72,44.27,44.27,0,0,1-6.29-6.18,45.23,45.23,0,0,1-6.3-10.79,76.54,76.54,0,0,1-4.29-13.77,81.56,81.56,0,0,1-1.43-8.48q-.36-3.33-.46-6.68c-.51-15.73-.46-31.46-.41-47.2,0-7.22.11-14.45.17-21.68Z" transform="translate(-165.67 -265.28)"/><path class="cls-1" d="M443.56,366.56c1.47-2.8,2.76-5.51,4.11-8.2s2.67-5.39,4-8.09,2.68-5.39,4-8.09l4-8.09,4.06-8.19,4-8.09c1.33-2.7,2.68-5.39,4-8.09s2.67-5.39,4-8.09,2.68-5.39,4-8.06a3.18,3.18,0,0,1,.48-.09h11.51a1,1,0,0,1,.29.08c0,.08,0,.16,0,.22l-48.29,96.46c0,.08-.14.14-.23.22a1.1,1.1,0,0,1-.2-.25l-48.24-96.35c0-.05,0-.13,0-.22s.28-.17.45-.17h11c.38,0,.77,0,1.21,0q6,12.19,11.93,24.35t11.86,24.24C435.55,350.21,439.53,358.31,443.56,366.56Z" transform="translate(-165.67 -265.28)"/><path class="cls-1" d="M517.49,390.57a5.12,5.12,0,0,1-.63.1c-2.93.13-9.38.05-10.27-.12,0-.19,0-.39-.06-.59s0-.49,0-.74v-94c0-.46,0-.91,0-1.28a1.3,1.3,0,0,1,.15-.16.15.15,0,0,1,.1,0l9.58,0,.85,0a1,1,0,0,1,.25.1c0,.17.06.38.07.58s0,.57,0,.85v93.87A6.15,6.15,0,0,1,517.49,390.57Z" transform="translate(-165.67 -265.28)"/><path class="cls-1" d="M511.86,279.61a6.9,6.9,0,1,1,6.93-6.86A7,7,0,0,1,511.86,279.61Z" transform="translate(-165.67 -265.28)"/></svg>