<svg xmlns="http://www.w3.org/2000/svg" viewBox="0 0 585.51 631.56"><defs><style>.cls-1{fill:#fff;}.cls-2{fill:#414042;}</style></defs><g id="WhiteBody"><circle class="cls-1" cx="1365.86" cy="400" r="292.75" transform="translate(-955.9 975.72) rotate(-45)"/></g><g id="BlackNose"><path class="cls-2" d="M1613.78,244.26c-51.81-82.31-143.47-137-247.91-137-100.86,0-189.8,51-242.45,128.63l213,455.41q14.51,1.44,29.4,1.46a296.69,296.69,0,0,0,39.33-2.63Z" transform="translate(-1073.11 -107.25)"/></g><g id="WhiteBeak"><path class="cls-1" d="M1365.9,692.77q-14.88,0-29.4-1.46s19.7,47.49,34.09,47.49c14.86,0,34.64-48.67,34.64-48.67A295,295,0,0,1,1365.9,692.77Z" transform="translate(-1073.11 -107.25)"/></g><g id="LeftEye"><path class="cls-2" d="M1238.86,578A22.88,22.88,0,1,1,1216,555.12,22.87,22.87,0,0,1,1238.86,578Z" transform="translate(-1073.11 -107.25)"/></g><g id="Layer_5" data-name="Layer 5"><path class="cls-2" d="M1543,577.91A22.88,22.88,0,1,1,1520.12,555,22.88,22.88,0,0,1,1543,577.91Z" transform="translate(-1073.11 -107.25)"/></g></svg>