<svg id="Layer_1" data-name="Layer 1" xmlns="http://www.w3.org/2000/svg" viewBox="0 0 165.77 195.29"><defs><style>.cls-1{fill:#fff;}</style></defs><path class="cls-1" d="M1050.27,162.79s.45-67.71-1-86.89-10.61-34.67-18.47-36-12,5.94-12,5.94c-8.36,9.43-12.36,28.26-12.36,28.26-12.52-4.46-36.24-4.67-36.24-4.67-22.35-1.56-43.43,4.5-43.43,4.5S918.67,59,911.16,50.07c-16.17-19.14-23.77,6.42-23.77,6.42-4.07,25.76-2.08,35-2.08,35l5.31,78.37s-6.24,64.63,82.17,65.13C1060,235.46,1050.27,162.79,1050.27,162.79Zm-26.61-4.71c-2.94,27.49-28.58,47.68-57.26,45.11s-49.54-26.94-46.6-54.43,28.57-47.69,57.25-45.11S1026.6,130.59,1023.66,158.08Z" transform="translate(-884.82 -39.69)"/><ellipse class="cls-1" cx="67.66" cy="115.39" rx="7.46" ry="12.43"/><ellipse class="cls-1" cx="105.06" cy="116.03" rx="7.46" ry="12.43"/></svg>