<svg id="Layer_1" data-name="Layer 1" xmlns="http://www.w3.org/2000/svg" viewBox="0 0 402.66 402.73"><defs><style>.cls-1{fill:#fff;}</style></defs><path class="cls-1" d="M1099.56,314.45c-4.65-4.9-8.92-9.47-13.27-14-5.18-5.36-10.27-10.82-15.72-15.9-2.59-2.42-5-4.82-6.16-8.16a13.36,13.36,0,0,1-.73-4.48c.08-17.59.44-35.17.25-52.75-.07-6,2.51-10.11,6.42-14,4.9-4.82,9.71-9.73,14.59-14.57q12.94-12.83,25.91-25.58a71.61,71.61,0,0,1,6.05-5.78,11.06,11.06,0,0,1,14.58.53c5.26,4.84,10.28,9.93,15.33,15,4.76,4.76,9.44,9.6,14.15,14.41,3.36,3.42,3.21,10.92.12,14.88-4.47,5.71-13.18,5.73-18,.37-6-6.59-12.27-12.94-18.85-19.85-3.78,4-6.81,7.27-10,10.45-7.69,7.79-15.33,15.65-23.23,23.23-2.83,2.72-4.26,5.35-4.15,9.44.31,12.21.2,24.44,0,36.66a7.89,7.89,0,0,0,2.79,6.4c1.71,1.56,3.48,3.06,5.11,4.7,7.28,7.36,14.46,14.8,21.78,22.11,5,4.95,10.14,9.65,15.1,14.59,4.57,4.56,8.92,9.35,13.46,14,5.63,5.72,11.34,11.37,17,17,5.51,5.44,11.08,10.83,16.59,16.27,6.16,6.07,12.33,12.13,18.42,18.26,3.63,3.65,7,7.5,10.68,11.14,5.39,5.38,10.92,10.62,16.32,16,4.52,4.51,8.89,9.2,13.42,13.71,6.81,6.78,13.74,13.45,20.57,20.22q8.77,8.7,17.44,17.51c1.29,1.3,2.46,2.72,3.66,4.11a12.36,12.36,0,0,1,1.19,14c-4.19,6.86-13.93,6.12-17.79,2.22-7-7-14.18-13.8-21.18-20.8-6.77-6.76-13.37-13.71-20.12-20.5-3.74-3.77-7.69-7.32-11.46-11.07-5.21-5.21-10.31-10.53-15.51-15.74-5.39-5.4-10.87-10.71-16.25-16.11-3.73-3.74-7.3-7.64-11-11.37-5.26-5.22-10.65-10.3-15.9-15.52-4.1-4.07-8-8.31-12.14-12.38-5.41-5.39-10.92-10.67-16.35-16-2.06-2.05-4-4.22-5.6-5.91-4.71,4.41-9.49,8.71-14.08,13.21-8.37,8.19-16.62,16.5-24.94,24.75q-10.41,10.31-20.88,20.56a10.53,10.53,0,0,1-7.77,3.12c-7.09-.08-14.18-.06-21.27,0a58.22,58.22,0,0,0-6.61.43,12.41,12.41,0,0,1-10.79-3.91c-7-7-13.92-14-20.9-20.92-3.48-3.47-7-6.87-10.5-10.34s-5.64-8.79-2.73-14.37c2.35-4.52,7.86-6.85,13-6A13.31,13.31,0,0,1,997,342c7.91,8,15.71,16,23.63,24,2.48,2.48,5.17,4.3,9.17,3.78a71.43,71.43,0,0,1,11.52-.06,5.81,5.81,0,0,0,4.74-1.88c5.94-6.07,12-12.07,18-18.08,6.9-6.91,13.78-13.84,20.72-20.71C1089.77,324,1094.9,319,1099.56,314.45Z" transform="translate(-879.45 -76.82)"/><path class="cls-1" d="M1047.15,108.36l-22.54,22.12c-4.35,4.28-8.73,8.53-13,12.9a5.29,5.29,0,0,0-1.55,3.22c-.1,13.93-.08,27.86,0,41.78a3.55,3.55,0,0,0,.8,2.3c5.52,5.65,11.11,11.22,16.69,16.81s11.06,11,16.57,16.58c4,4,8.16,7.92,11.9,12.18a10.63,10.63,0,0,1,1.88,10.59c-2.55,7.81-8.25,9.57-15.25,7.88-2.1-.51-3.95-2.53-5.64-4.15-4.53-4.35-8.91-8.85-13.33-13.3-5.87-5.9-11.69-11.83-17.58-17.69-5.1-5.08-10.28-10.08-15.4-15.12a12.14,12.14,0,0,1-3.95-8.84c0-18.62,0-37.25,0-55.87,0-3.82,1.79-6.77,4.24-9.24,9-9,18.12-17.9,27.14-26.89,5.54-5.52,10.86-11.26,16.47-16.7,2.62-2.54,4.79-5.62,8.67-6.8,5.4-1.64,9.46.37,13.07,4q12.21,12.16,24.28,24.49c2.16,2.21,4.63,4.2,5.36,7.56,1.95,9-3.79,15-11.18,15.23-3.48.08-6.27-1.58-8.68-4C1059.73,121,1053.37,114.61,1047.15,108.36Z" transform="translate(-879.45 -76.82)"/><path class="cls-1" d="M902.58,99.69v3.39c0,15.29,0,30.58.06,45.88a5.53,5.53,0,0,0,1.4,3.49q12.9,13.23,26,26.27c4.34,4.35,8.72,8.67,13.2,12.88a5.36,5.36,0,0,0,3.3,1.25c6.06.12,12.13.07,18.2.05a11.43,11.43,0,0,1,10.76,6.48,11,11,0,0,1-1,12.27,10.62,10.62,0,0,1-8.73,4.54c-8.88.18-17.76.16-26.64.21-4.68,0-7.86-2.72-10.92-5.8q-13.89-14-27.89-27.9c-5.95-5.94-12-11.76-17.83-17.85a10.68,10.68,0,0,1-3-7.62c.09-23,0-46,0-68.95,0-6.89,4.39-11.35,11.18-11.35,20,0,40,.17,60-.11,5.28-.07,10.53,4.37,11.32,9.45a11.37,11.37,0,0,1-7.62,12.65,14.32,14.32,0,0,1-4.49.74c-14.78.06-29.56,0-44.34,0Z" transform="translate(-879.45 -76.82)"/><path class="cls-1" d="M964.23,320.6c-5.37,0-10.76-.27-16.1.09-5.07.34-8.23-2.37-11.35-5.64-3.93-4.11-7.93-8.16-11.95-12.18-5.4-5.38-10.89-10.67-16.25-16.08a20,20,0,0,1-5.05-7.82c-2.25-6.68,5.33-16,13.62-14.12,3.39.75,5.66,2.69,7.91,4.86,5.3,5.13,10.47,10.38,15.7,15.59,3.49,3.46,7,7,10.51,10.36a4.2,4.2,0,0,0,2.55,1.16c5.47.1,10.93.13,16.39,0a5.29,5.29,0,0,0,3.29-1.44c6.86-6.83,13.57-13.79,20.4-20.64,5.22-5.24,10.54-10.37,15.81-15.55,2.23-2.21,4.42-4.46,6.69-6.62,5.87-5.58,14.1-5.57,19.5,2.14,2,2.83,1.88,8.72-.48,11.34-5.22,5.8-10.62,11.45-16.07,17-7.17,7.35-14.44,14.6-21.72,21.85-4.45,4.44-8.84,9-13.57,13.1a11.26,11.26,0,0,1-6.26,2.29c-4.5.35-9,.11-13.57.11Z" transform="translate(-879.45 -76.82)"/><path class="cls-1" d="M1199.94,262.26c-3.2,3.32-6.17,6.46-9.22,9.53q-13.82,13.89-27.69,27.72c-3.36,3.34-6.87,6.4-12.16,5.88a11.51,11.51,0,0,1-10.33-13.63c.83-5.14,4.6-8.11,7.94-11.44,4.51-4.5,9-9,13.49-13.53,4.33-4.3,8.73-8.52,13-12.83,5.23-5.22,10.48-10.42,15.57-15.77,5.73-6,13.21-6.16,19-.22,4.5,4.64,9,9.25,13.6,13.85q6.21,6.27,12.47,12.48a12.94,12.94,0,0,1,4.19,10c-.2,6.66,0,13.33,0,20a11.68,11.68,0,1,1-23.35-.11c.09-4.1-.16-8.21.08-12.3a7,7,0,0,0-2.44-6C1209.42,271.54,1204.89,267.06,1199.94,262.26Z" transform="translate(-879.45 -76.82)"/><path class="cls-1" d="M1097.11,459.72c-3.3.23-6.62.41-9.92.71-4.71.44-8-2-11.13-5.08-8.87-8.87-17.89-17.6-26.62-26.61-2.94-3-6.86-5.65-7.33-10.4a13.73,13.73,0,0,1,.54-6.4c3.37-8.08,12.64-10.5,18.74-4.69,8,7.61,15.59,15.6,23.38,23.4,1.81,1.81,3.64,3.59,5.58,5.26a3.55,3.55,0,0,0,2.12.47c3.5.05,7,0,10.51,0,7.5,0,13,5.84,11.21,14.63-1.18,5.66-5.63,8.89-11.42,8.9h-5.64Z" transform="translate(-879.45 -76.82)"/></svg>