<svg id="Layer_1" data-name="Layer 1" xmlns="http://www.w3.org/2000/svg" viewBox="0 0 203.32 203.17"><defs><style>.cls-1{fill:#2e3192;}.cls-2{fill:#aaa9d4;}.cls-3{fill:#5e61ab;}.cls-4{fill:#fff;}</style></defs><rect class="cls-1" x="27.4" y="29.13" width="147.84" height="137.06"/><rect class="cls-2" x="82.91" y="39" width="82.5" height="80.27"/><polygon class="cls-3" points="132.21 159.29 41.04 159.29 82.91 119.27 171.78 119.27 132.21 159.29"/><path class="cls-4" d="M1231.63,412.74v-5.36h-203.3V610.54h6q45.09,0,90.2,0c5.3,0,10.62-.28,15.9-.77,51.08-4.74,91.13-48.58,91.21-99.84Q1231.7,461.32,1231.63,412.74ZM1128.09,566.67h-58.72V448.25h118.11s.06,4.49.06,46.19C1187.54,537.4,1154.66,566.67,1128.09,566.67Z" transform="translate(-1028.33 -407.38)"/></svg>