<?xml version="1.0" encoding="utf-8"?>
<!-- Generator: Adobe Illustrator 25.1.0, SVG Export Plug-In . SVG Version: 6.00 Build 0)  -->
<svg version="1.1" id="Layer_1" xmlns="http://www.w3.org/2000/svg" xmlns:xlink="http://www.w3.org/1999/xlink" x="0px" y="0px"
	 viewBox="0 0 203.3 203.2" style="enable-background:new 0 0 203.3 203.2;" xml:space="preserve">
<style type="text/css">
	.st0{fill:#4D4D4F;}
	.st1{fill:#A5A7AA;}
	.st2{fill:#181818;}
	.st3{fill:#FFFFFF;}
</style>
<rect x="27.4" y="29.1" class="st0" width="147.8" height="137.1"/>
<rect x="82.9" y="39" class="st1" width="82.5" height="80.3"/>
<polygon class="st2" points="132.2,159.3 41,159.3 82.9,119.3 171.8,119.3 "/>
<path class="st3" d="M203.3,5.4V0H0v203.2h6c30.1,0,60.1,0,90.2,0c5.3,0,10.6-0.3,15.9-0.8c51.1-4.7,91.1-48.6,91.2-99.8
	C203.3,70.1,203.3,37.7,203.3,5.4z M99.8,159.3H41V40.9h118.1c0,0,0.1,4.5,0.1,46.2C159.2,130,126.3,159.3,99.8,159.3z"/>
</svg>
