<?xml version="1.0" encoding="utf-8"?>
<!-- Generator: Adobe Illustrator 25.1.0, SVG Export Plug-In . SVG Version: 6.00 Build 0)  -->
<svg version="1.1" id="Layer_1" xmlns="http://www.w3.org/2000/svg" xmlns:xlink="http://www.w3.org/1999/xlink" x="0px" y="0px"
	 viewBox="0 0 700 700" style="enable-background:new 0 0 700 700;" xml:space="preserve">
<path d="M54.9,100.2c-7.1,0-13.9,1.4-20.1,3.9l299.3,266.6c10.4,9.3,22,9.3,32.4,0l298.7-266.6c-6.2-2.5-13-3.9-20.1-3.9H54.9
	L54.9,100.2z M1.8,146.3c-0.3,2.4-0.6,5-0.6,7.5v357.7c0,7.3,1.5,14.3,4.2,20.7l206.5-198.4L1.8,146.3z M698.2,146.3L488.6,333.6
	L694.8,532c2.6-6.3,3.9-13.2,3.9-20.4V153.9C698.8,151.3,698.5,148.8,698.2,146.3L698.2,146.3z M448.4,369.6L402.3,411
	c-29.3,26.2-74.6,26.1-104,0l-46.1-41.1L48.7,564.9c2,0.2,4.1,0.3,6.2,0.3h590.2c2,0,4-0.1,5.9-0.3L448.4,369.6L448.4,369.6z"/>
</svg>
