<?xml version="1.0" encoding="utf-8"?>
<!-- Generator: Adobe Illustrator 25.1.0, SVG Export Plug-In . SVG Version: 6.00 Build 0)  -->
<svg version="1.1" id="Layer_1" xmlns="http://www.w3.org/2000/svg" xmlns:xlink="http://www.w3.org/1999/xlink" x="0px" y="0px"
	 viewBox="0 0 512 512" style="enable-background:new 0 0 512 512;" xml:space="preserve">
<style type="text/css">
	.st0{fill:#FFFFFF;}
</style>
<g id="Glyph">
	<path class="st0" d="M63,187.7c15.4,23.9,32.5,46.7,51,68.3h13.8c-1.7-10-4.2-19.8-7.4-29.5c-12.2-35.7-33.5-67.6-61.8-92.6
		l10.7-11.9c30.3,26.8,53.1,61.1,66.2,99.4c2.1,6.3,3.8,12.8,5.4,19.3c0.7-1.3,1.5-2.6,2.1-4c18-40,9.3-103.7-29-125.8
		c-18.6-9.6-40.2-11.2-60-4.3c-9,2.3-16.7,8.2-21.2,16.4C28.6,133.7,40.3,152.5,63,187.7L63,187.7z"/>
	<path class="st0" d="M247.5,178.2c-0.6-4.8-1.8-9.6-3.6-14.1c-12.5-31.6-48.9-49.3-70.7-42.8c-7.2,2.4-13.3,7.1-17.6,13.3
		c14.7,32.1,16.4,68.7,4.7,102c0.5-0.6,1-1.1,1.4-1.6c17-22,27.5-48.3,30.3-75.9l15.9,1.7c-3.1,30.6-14.8,59.8-33.7,84.1
		c-3,3.9-6.4,7.5-9.8,11h36.9l0.7-0.3C193.3,221.8,213.6,187.2,247.5,178.2L247.5,178.2z"/>
	<path class="st0" d="M393.6,256h80.1c-5.1-7.4-12.2-13.1-20.5-16.5c-5.4-1.8-11.1-2.9-16.8-3c-7.3-0.5-15.7-1.2-19.5-8.9
		c-4-8.1,1.5-14.9,5.8-20.4c4.5-4.8,7.7-10.7,9.5-17c4-17.2,4-46.2-12.1-55.2c-7.6-3.9-16.4-4.5-24.4-1.7
		c-12,3.6-22.2,11.6-28.5,22.4c-6.2,12-2.6,25.4,0.9,38.3s7.2,26.5-2.5,35.8c-9.8,9.5-24.2,5.6-38.2,1.8c1.2,8.2,0.7,16.5-1.5,24.4
		h51.4c2-11.3,4.3-22.7,6.9-33.8c4.5-19.1,9.9-38.2,16.2-56.7l15.2,5.1c-6.1,18.1-11.4,36.7-15.8,55.3
		C397.5,235.8,395.4,245.9,393.6,256L393.6,256z"/>
	<path class="st0" d="M309.2,256c1.5-4.1,2.3-8.5,2.6-12.8l-13.3,4.4l-5.1-15.2l16.7-5.6c-5.1-17.7-19.9-31-38.1-34.1V208h-16v-15.3
		c-15.5,2.7-28.8,12.8-35.5,27l14,4.7l-5.1,15.2l-13.2-4.4c-0.2,1.6-0.2,3.2-0.2,4.8c0,5.5,0.9,10.9,2.8,16H309.2z M256,224h16v16
		h-16V224z"/>
	<path class="st0" d="M93.2,256c-8.9-10.9-17.6-22.1-25.8-33.7c-7.3,2.4-14.4,5.5-21.1,9.2c-5.5,2.4-9.9,6.6-12.6,12
		c-1.6,4-2.1,8.3-1.2,12.5H93.2z"/>
	<path class="st0" d="M32.1,272c4.4,116,99.7,207.9,215.9,208h16c116.1-0.1,211.4-92,215.9-208H32.1z M164.5,439.2
		c-37.8-18.3-69.6-47.1-91.4-83l13.7-8.3c20.2,33.3,49.6,60,84.6,77L164.5,439.2z M200,448h-16v-16h16V448z"/>
	<path class="st0" d="M376,64V48h-32c-35.3,0-64,28.7-64,64v16h32C347.3,128,376,99.3,376,64z"/>
	<circle class="st0" cx="224" cy="64" r="16"/>
	<circle class="st0" cx="120" cy="40" r="16"/>
</g>
</svg>
